<svg width="70" height="70" viewBox="0 0 70 70" fill="none" xmlns="http://www.w3.org/2000/svg">
<path fill-rule="evenodd" clip-rule="evenodd" d="M38.1499 43.1199L44.5783 36.6915C46.3537 34.9161 46.7939 32.2037 45.671 29.958L45.3068 29.2295C44.1839 26.9837 44.624 24.2714 46.3995 22.496L54.3701 14.5253C54.9397 13.9558 55.863 13.9558 56.4325 14.5253C56.5434 14.6361 56.6356 14.7641 56.7057 14.9043L59.9256 21.3442C62.3889 26.2707 61.4234 32.2208 57.5286 36.1156L40.032 53.6122C35.7925 57.8517 29.5216 59.332 23.8337 57.4361L16.7915 55.0886C16.0274 54.834 15.6145 54.0081 15.8692 53.244C15.9408 53.0292 16.0614 52.834 16.2215 52.674L23.9544 44.9411C25.7298 43.1656 28.4421 42.7255 30.6879 43.8484L31.4164 44.2126C33.6621 45.3355 36.3745 44.8953 38.1499 43.1199Z" fill="#0C48C6"/>
<path opacity="0.3" fill-rule="evenodd" clip-rule="evenodd" d="M41.7474 11.7071L42.2871 5.89878C32.8445 5.02136 23.454 8.31984 16.6164 15.1574C9.78828 21.9856 6.48919 31.3597 7.35425 40.7903L13.1632 40.2574C12.4548 32.5346 15.1516 24.8718 20.7412 19.2822C26.3386 13.6849 34.0147 10.9886 41.7474 11.7071ZM40.7091 23.3279L41.2673 17.5213C35.239 16.9418 29.2339 19.0403 24.867 23.4071C20.5145 27.7596 18.4151 33.74 18.9758 39.75L24.784 39.2082C24.3828 34.9088 25.8801 30.6436 28.9918 27.5319C32.1138 24.4099 36.3967 22.9133 40.7091 23.3279Z" fill="#0C48C6"/>
</svg>
