<svg width="77" height="88" viewBox="0 0 77 88" fill="none" xmlns="http://www.w3.org/2000/svg">
<rect x="13.0771" y="77.5" width="28.6154" height="11.9231" rx="1.5" transform="rotate(-90 13.0771 77.5)" fill="#0C48C6"/>
<path opacity="0.3" fill-rule="evenodd" clip-rule="evenodd" d="M32.75 76C32.75 76.8284 33.4216 77.5 34.25 77.5L42.875 77.5C43.7034 77.5 44.375 76.8284 44.375 76L44.375 40.25C44.375 39.4216 43.7034 38.75 42.875 38.75L34.25 38.75C33.4216 38.75 32.75 39.4216 32.75 40.25L32.75 76ZM52.125 76C52.125 76.8284 52.7966 77.5 53.625 77.5L62.25 77.5C63.0784 77.5 63.75 76.8284 63.75 76L63.75 17C63.75 16.1716 63.0784 15.5 62.25 15.5L53.625 15.5C52.7966 15.5 52.125 16.1716 52.125 17L52.125 76Z" fill="#0C48C6"/>
</svg>
