<svg width="53" height="64" viewBox="0 0 53 64" fill="none" xmlns="http://www.w3.org/2000/svg">
<path opacity="0.3" fill-rule="evenodd" clip-rule="evenodd" d="M15.7035 8H6.90723C5.80266 8 4.90723 8.89543 4.90723 10V59.3333C4.90723 60.4379 5.80266 61.3333 6.90723 61.3333H46.0924C47.197 61.3333 48.0924 60.4379 48.0924 59.3333V10C48.0924 8.89543 47.197 8 46.0924 8H37.2961V9.33333C37.2961 11.5425 35.4835 13.3333 33.2475 13.3333H19.7521C17.5161 13.3333 15.7035 11.5425 15.7035 9.33333V8Z" fill="#0C48C6"/>
<path fill-rule="evenodd" clip-rule="evenodd" d="M29.1992 5.33314C29.1991 3.8604 27.9907 2.6665 26.5001 2.6665C25.0094 2.6665 23.801 3.8604 23.801 5.33314H18.9028C18.6267 5.33314 18.4028 5.557 18.4028 5.83314V10.1665C18.4028 10.4426 18.6267 10.6665 18.9028 10.6665H34.0973C34.3734 10.6665 34.5973 10.4426 34.5973 10.1665V5.83314C34.5973 5.557 34.3734 5.33314 34.0973 5.33314H29.1992Z" fill="#0C48C6"/>
<rect opacity="0.3" x="13.0044" y="26.6665" width="13.4954" height="5.33334" rx="2" fill="#0C48C6"/>
<rect opacity="0.3" x="13.0044" y="37.3335" width="24.2917" height="5.33334" rx="2" fill="#0C48C6"/>
</svg>
