<svg width="17" height="19" viewBox="0 0 17 19" fill="none" xmlns="http://www.w3.org/2000/svg">
<path d="M13.7266 9.75L7.94531 15.5312C6.5 16.9922 4.55469 16.8516 3.30469 15.6016C2.04688 14.3516 1.91406 12.4141 3.375 10.9531L11.2969 3.03125C12.1328 2.19531 13.3906 2.02344 14.2109 2.85156C15.0391 3.6875 14.8672 4.92969 14.0312 5.76562L6.23438 13.5703C5.91406 13.8984 5.53906 13.8047 5.3125 13.5859C5.10156 13.3672 5.01562 12.9922 5.33594 12.6719L10.7656 7.23438C11.0625 6.9375 11.0781 6.49219 10.7891 6.20312C10.5 5.92188 10.0547 5.92969 9.75781 6.22656L4.29688 11.6875C3.42969 12.5547 3.46875 13.8906 4.24219 14.6641C5.07812 15.5 6.34375 15.4766 7.21875 14.6094L15.0547 6.76562C16.6016 5.21875 16.5547 3.1875 15.1953 1.82031C13.8516 0.492188 11.7812 0.40625 10.2344 1.94531L2.25781 9.9375C0.25 11.9453 0.382812 14.8516 2.21875 16.6875C4.05469 18.5156 6.96094 18.6562 8.96875 16.6484L14.7969 10.8203C15.0859 10.5391 15.0781 10.0078 14.7812 9.73438C14.5 9.42969 14.0234 9.46094 13.7266 9.75Z" fill="#001E5D"/>
</svg>
