<svg width="70" height="70" viewBox="0 0 70 70" fill="none" xmlns="http://www.w3.org/2000/svg">
<path fill-rule="evenodd" clip-rule="evenodd" d="M23.332 15.3521C23.332 14.9893 23.7063 14.7473 24.0372 14.8962L67.6986 34.5438C68.0917 34.7207 68.0917 35.2788 67.6986 35.4557L24.0372 55.1034C23.7063 55.2522 23.332 55.0102 23.332 54.6474V38.4033L59.6359 34.9998L23.332 31.5963V15.3521Z" fill="#0C48C6"/>
<path opacity="0.3" fill-rule="evenodd" clip-rule="evenodd" d="M10.25 17.5C9.42157 17.5 8.75 18.1716 8.75 19V21.8333C8.75 22.6618 9.42157 23.3333 10.25 23.3333H16C16.8284 23.3333 17.5 22.6618 17.5 21.8333V19C17.5 18.1716 16.8284 17.5 16 17.5H10.25ZM0 33.5834C0 32.755 0.671573 32.0834 1.5 32.0834H16C16.8284 32.0834 17.5 32.755 17.5 33.5834V36.4167C17.5 37.2451 16.8284 37.9167 16 37.9167H1.5C0.671573 37.9167 0 37.2451 0 36.4167V33.5834ZM8.75 48.1666C8.75 47.3382 9.42157 46.6666 10.25 46.6666H16C16.8284 46.6666 17.5 47.3382 17.5 48.1666V51C17.5 51.8284 16.8284 52.5 16 52.5H10.25C9.42157 52.5 8.75 51.8284 8.75 51V48.1666Z" fill="#0C48C6"/>
</svg>
