<svg width="73" height="74" viewBox="0 0 73 74" fill="none" xmlns="http://www.w3.org/2000/svg">
<path opacity="0.3" fill-rule="evenodd" clip-rule="evenodd" d="M13 11.9565L36.9648 7.4631C37.2084 7.41742 37.4583 7.41742 37.7019 7.4631L61.6667 11.9565V48.4431C61.6667 52.2358 59.7128 55.761 56.4967 57.7711L37.8633 69.4169C37.5391 69.6196 37.1276 69.6196 36.8033 69.4169L18.17 57.7711C14.9538 55.761 13 52.2358 13 48.4431L13 11.9565Z" fill="#0C48C6"/>
<path fill-rule="evenodd" clip-rule="evenodd" d="M34.7448 44.9896C34.0161 44.9896 33.2873 44.6981 32.7043 44.1151L26.8745 38.2852C25.7085 37.1193 25.7085 35.3703 26.8745 34.2043C28.0405 33.0384 29.9352 33.0384 30.9554 34.2043L34.7448 37.9937L44.3641 28.3745C45.53 27.2085 47.279 27.2085 48.445 28.3745C49.6109 29.5405 49.6109 31.2894 48.445 32.4554L36.7852 44.1151C36.2023 44.6981 35.4735 44.9896 34.7448 44.9896Z" fill="#0C48C6"/>
</svg>
